<svg width="45" height="45" viewBox="0 0 330 330" version="1.1" xmlns="http://www.w3.org/2000/svg" xmlns:xlink="http://www.w3.org/1999/xlink"><g id="Page-1" stroke="none" stroke-width="1" fill="none" fill-rule="evenodd"><g id="Group-3" fill="#434343"><path d="M255.9678,275.7774 L216.8818,167.8704 L232.0048,135.2544 L277.3398,254.0264 C273.9128,258.3414 270.2478,262.4624 266.3558,266.3574 C263.0478,269.6634 259.5798,272.8054 255.9678,275.7774 L255.9678,275.7774 Z M90.9308,288.0804 L123.1818,196.8364 L153.3858,263.5484 C155.0818,267.2994 158.7878,269.6994 162.9038,269.7184 L162.9478,269.7184 C167.0468,269.7194 170.7528,267.3554 172.4778,263.6354 L204.3408,194.9164 L238.1628,288.2924 C216.6758,301.0954 191.5858,308.4504 164.7268,308.4534 C137.7198,308.4504 112.4978,301.0154 90.9308,288.0804 L90.9308,288.0804 Z M51.3438,253.0534 L95.3398,135.3404 L110.6738,169.2104 L73.1148,275.4714 C69.6368,272.5904 66.2918,269.5494 63.0978,266.3574 C58.9118,262.1704 54.9888,257.7244 51.3438,253.0534 L51.3438,253.0534 Z M136.6298,158.7884 L163.6088,82.4604 L191.2548,158.7884 L136.6298,158.7884 Z M188.2088,179.7874 L163.0648,234.0124 L138.5148,179.7874 L188.2088,179.7874 Z M63.0978,63.0974 C89.1398,37.0704 125.0038,21.0064 164.7268,21.0024 C204.4478,21.0064 240.3128,37.0704 266.3558,63.0974 C292.3798,89.1384 308.4468,125.0024 308.4508,164.7244 C308.4478,189.2114 302.3348,212.2264 291.5558,232.3834 L242.7558,104.5244 C241.2518,100.5874 237.5228,97.9204 233.3098,97.7754 C229.0988,97.6274 225.1908,100.0274 223.4208,103.8524 L206.7308,139.8454 L173.3608,47.7194 C171.8478,43.5444 167.8868,40.7774 163.4478,40.7954 C159.0078,40.8124 155.0668,43.6094 153.5888,47.7954 L120.7808,140.6164 L103.9768,103.5004 C102.2268,99.6324 98.3018,97.1944 94.0578,97.3394 C89.8148,97.4804 86.0638,100.1794 84.5768,104.1554 L37.1658,231.0014 C26.8418,211.1764 21.0038,188.6524 20.9998,164.7244 C21.0068,125.0044 37.0708,89.1384 63.0978,63.0974 L63.0978,63.0974 Z M164.7268,0.0004 C73.7468,0.0084 0.0068,73.7474 -0.0002,164.7244 C0.0068,255.7084 73.7468,329.4464 164.7268,329.4554 C255.7058,329.4484 329.4448,255.7084 329.4498,164.7244 C329.4448,73.7474 255.7058,0.0064 164.7268,0.0004 L164.7268,0.0004 Z"></path></g></g></svg>